inDegrees=no
num_controls=7
num_derivatives=13
num_iterations=81
num_multipliers=7
num_parameters=0
num_slacks=7
num_states=26
objective=0.425771
objective_accelerations=0.059957
objective_balance=0.001388
objective_effort=0.014818
objective_height=0.343737
objective_ligament=0.005872
solver_duration=1173.313649
status=Solve_Succeeded
success=true
DataType=double
version=3
OpenSimVersion=4.5
endheader
time	/jointset/ground_pelvis/pelvis_tilt/value	/jointset/ground_pelvis/pelvis_tx/value	/jointset/ground_pelvis/pelvis_ty/value	/jointset/hip_l/hip_flexion_l/value	/jointset/hip_l/hip_adduction_l/value	/jointset/hip_l/hip_rotation_l/value	/jointset/back/lumbar_extension/value	/jointset/patellofemoral_l/patellar_flexion_l/value	/jointset/knee_l/knee_flexion_l/value	/jointset/knee_l/knee_adduction_l/value	/jointset/knee_l/knee_rotation_l/value	/jointset/ankle_l/ankle_angle_l/value	/jointset/subtalar_l/subtalar_angle_l/value	/jointset/ground_pelvis/pelvis_tilt/speed	/jointset/ground_pelvis/pelvis_tx/speed	/jointset/ground_pelvis/pelvis_ty/speed	/jointset/hip_l/hip_flexion_l/speed	/jointset/hip_l/hip_adduction_l/speed	/jointset/hip_l/hip_rotation_l/speed	/jointset/back/lumbar_extension/speed	/jointset/patellofemoral_l/patellar_flexion_l/speed	/jointset/knee_l/knee_flexion_l/speed	/jointset/knee_l/knee_adduction_l/speed	/jointset/knee_l/knee_rotation_l/speed	/jointset/ankle_l/ankle_angle_l/speed	/jointset/subtalar_l/subtalar_angle_l/speed	/forceset/tau_hip_flexion_l	/forceset/tau_hip_adduction_l	/forceset/tau_hip_rotation_l	/forceset/tau_knee_flexion_l	/forceset/tau_ankle_angle_l	/forceset/tau_subtalar_angle_l	/forceset/tau_lumbar_extension	lambda_cid13_p0	lambda_cid13_p1	lambda_cid13_p2	lambda_cid13_p3	lambda_cid13_p4	lambda_cid13_p5	lambda_cid14_p0	/jointset/ground_pelvis/pelvis_tilt/accel	/jointset/ground_pelvis/pelvis_tx/accel	/jointset/ground_pelvis/pelvis_ty/accel	/jointset/hip_l/hip_flexion_l/accel	/jointset/hip_l/hip_adduction_l/accel	/jointset/hip_l/hip_rotation_l/accel	/jointset/back/lumbar_extension/accel	/jointset/patellofemoral_l/patellar_flexion_l/accel	/jointset/knee_l/knee_flexion_l/accel	/jointset/knee_l/knee_adduction_l/accel	/jointset/knee_l/knee_rotation_l/accel	/jointset/ankle_l/ankle_angle_l/accel	/jointset/subtalar_l/subtalar_angle_l/accel	gamma_cid13_p0	gamma_cid13_p1	gamma_cid13_p2	gamma_cid13_p3	gamma_cid13_p4	gamma_cid13_p5	gamma_cid14_p0
1	-0.4480423849351003	-0.005157823733909691	0.5861533667347192	1.721673279599717	-0.3448449131273668	0.136572265261865	-0.4362850659118681	1.531623123828583	1.531623123828403	0.07050910649704667	-0.1744915387561239	0.4349337772637385	0.2520870276933754	-0.1411556464025317	-0.003009388362442566	0.03255852179839983	0.03113918461337259	0.001807094835317943	-0.06549176008290936	-0.0002708318508403384	-0.1523383836702283	-0.1523383836701133	0.006793436810574792	3.97422059441935e-05	-0.05526513405546413	-0.03054742027224438	-0.2425925146898302	0.04382335307028196	-0.0146156049195958	-0.2914452220712229	-0.04085480614254593	0.009338321314760978	0.210610048915969	-45.89625140655401	9.829972793553313	-8.529717972439281	10.44026928258881	-543.9087853585041	-63.57245163148074	-0.02371031507196997	1.520808116167463	0.1057966031701522	2.037299727265383	-6.604886512035534	-0.1919180135565849	-1.584727418985271	-0.03489990630566629	-5.685718822625237	-5.685718822625221	-0.8534691314879904	-0.02940847196177947	-1.099658134581722	-0.9734722704861648	4.563056222631916e-11	-1.404090928914434e-07	-6.042697257777038e-08	-1.209689097609315e-08	-7.66063715055292e-09	-1.913315608968294e-07	6.883387252817911e-09
1.01	-0.4493784706256116	-0.005182589528428679	0.586580621554043	1.721655299794546	-0.3448358043944777	0.1358402498977563	-0.4362887097097013	1.529815872020583	1.529815872020546	0.07053320664962243	-0.1744910218494505	0.4343262192121777	0.2517339942903412	-0.1260429527800439	-0.001934641565671656	0.05288492034294227	-0.03473918902576806	1.920547328045587e-05	-0.08090229767785445	-0.0004633760086732836	-0.2091059367971105	-0.2091059367970163	-0.001968844397573001	6.278130358540286e-05	-0.06625139757147677	-0.04004721687978464	-0.2429783551324667	0.04388397405577698	-0.01467202941325048	-0.2905427780318129	-0.04100882077117005	0.00936915721581333	0.2108108678682354	-45.90871261937967	9.787258605278918	-8.48692313759206	10.29929156345009	-543.7274921254187	-63.41851795079808	-0.02372596460567811	1.509281595907111	0.1096788826262719	2.029179248456985	-6.579918588386095	-0.1715276838536156	-1.51787167267979	-0.01224891426307486	-5.671369018720255	-5.671369018723412	-0.88693566320274	0.01800231194411766	-1.098856969040345	-0.9363873945995844	-5.229763111801851e-12	-1.839046390958688e-07	-8.589922321575177e-08	-2.081993346902708e-08	-1.201144008334503e-08	-2.424044458712006e-07	8.141681130075282e-09
1.02	-0.4505628730577774	-0.005196334822040911	0.5872109142248938	1.720978415093253	-0.3448444352124781	0.1349543982091092	-0.4362944423978538	1.527441125589114	1.527441125589237	0.07046981838057799	-0.1744903061095378	0.433608649223671	0.2512863321134895	-0.1108189947328495	-0.0008052881810914663	0.0731660921038087	-0.1006417946062216	-0.001740815341807174	-0.09625902499002711	-0.0006886099161394752	-0.265837308364015	-0.2658373083639424	-0.01070424751470368	7.950885390754369e-05	-0.07726752144466223	-0.0494731750357909	-0.2433641955752508	0.0439445950412488	-0.0147284539069021	-0.2896403339924	-0.04116283539977294	0.00939999311684071	0.2110116868203475	-45.92535399325531	9.74337460877932	-8.441769280380504	10.1647909338732	-543.6566996074883	-63.26523968828798	-0.02374423219021082	1.543061001108813	0.1167179207319911	2.02825437053018	-6.609732900298101	-0.1863443041666071	-1.573965362430787	-0.04143785623221243	-5.678482510629701	-5.678482510629862	-0.8480935132845626	-0.03067078142559207	-1.105630206016324	-0.9587045801793745	-8.181826612167562e-11	-2.270415272734581e-07	-1.112862071726368e-07	-2.898640781591477e-08	-1.636378820448106e-08	-2.934855746339861e-07	9.507111032623338e-09
1.03	-0.4515945849728787	-0.005198462324029907	0.5880437065431231	1.719642629485773	-0.3448704981018035	0.1339152858477244	-0.4363023666527626	1.524499329292679	1.524499329292753	0.07031926159450523	-0.1744894349312435	0.4327807292794991	0.2507448297976311	-0.09551519807410046	0.0003940691648880385	0.09337634365834901	-0.1664954326068375	-0.003464544137623309	-0.1115499461400901	-0.0008795665804241945	-0.3225078038782146	-0.3225078038782719	-0.01939887044755293	9.531925982012989e-05	-0.08832513181494467	-0.05881033187764301	-0.2435155843281181	0.04399312905210574	-0.01474946433928954	-0.2886205751154138	-0.04109985394640824	0.009462912629956667	0.2110861130838046	-45.84623492464117	9.664407135469201	-8.386016461846269	9.926830469835139	-543.3200829525045	-63.13042690459643	-0.02376821703836602	1.525267852027209	0.1236793698263848	2.015002195753171	-6.570194889465379	-0.1642818324175812	-1.504640830785374	-0.005423398542187343	-5.659213198133613	-5.659213198152952	-0.8789296780933943	0.01775122276883324	-1.107138409853768	-0.9186184290957017	-1.586693015567715e-10	-2.701747556752634e-07	-1.366723210613474e-07	-3.714720289600606e-08	-2.07161520928451e-08	-3.445667875170616e-07	1.087363415991926e-08
1.04	-0.4524730131506423	-0.005188169306900046	0.5890781197064651	1.717648904370369	-0.3449135772121139	0.1327236672069291	-0.4363117002396938	1.520991252015839	1.52099125201587	0.07008200198016161	-0.1744883967946517	0.4318419708401632	0.2501104764747728	-0.08016224726457805	0.001678815642679877	0.1134902611263632	-0.2322296961883348	-0.005144059538571034	-0.1267602808698086	-0.0009704763253276532	-0.3790935044451568	-0.3790935044453413	-0.02804481317273556	0.0001129005124976608	-0.09943522047801132	-0.06804337643579983	-0.2436669730810531	0.04404166306291986	-0.01477047477163253	-0.2876008162384307	-0.04103687249304319	0.009525832143001671	0.2111605393471875	-45.77151500914205	9.584361050472513	-8.327979538011071	9.695566008451028	-543.0948661153318	-62.99709867130381	-0.02379493189625975	1.552891831263497	0.1337957470944421	2.008987553224954	-6.585858016474388	-0.177501625192922	-1.557848078361908	-0.02142847235576247	-5.661523521178226	-5.661523521177821	-0.8383574717512341	-0.03031661207260474	-1.116125864573201	-0.9378821234403305	-1.032074716766519e-09	-3.118276622766261e-07	-1.607576871388799e-07	-4.333592216833069e-08	-2.569176274429362e-08	-3.907377626446341e-07	1.18929385314104e-08
